<svg width="215" height="50" viewBox="0 0 715.7 74.002" xmlns="http://www.w3.org/2000/svg"><g id="svgGroup" stroke-linecap="round" fill-rule="evenodd" font-size="9pt" stroke="#000000" stroke-width="0.5mm" fill="#000000" style="stroke:#000000;stroke-width:0.5mm;fill:#000000"><path d="M 465.4 26.601 L 457.2 26.601 A 25.916 25.916 0 0 0 455.366 19.773 A 20.087 20.087 0 0 0 450.15 12.551 A 20.348 20.348 0 0 0 439.805 7.764 A 28.091 28.091 0 0 0 435.2 7.401 Q 427.5 7.401 421.7 11.151 Q 415.9 14.901 412.7 21.551 A 31.783 31.783 0 0 0 409.988 30.454 A 42.189 42.189 0 0 0 409.5 37.001 A 41.116 41.116 0 0 0 410.203 44.778 A 31.222 31.222 0 0 0 412.7 52.451 A 25.934 25.934 0 0 0 418.02 59.93 A 24.083 24.083 0 0 0 421.7 62.851 A 23.492 23.492 0 0 0 432.74 66.507 A 29.185 29.185 0 0 0 435.1 66.601 A 27.219 27.219 0 0 0 442.041 65.759 A 20.273 20.273 0 0 0 450.35 61.401 A 20.561 20.561 0 0 0 456.848 50.447 A 27.43 27.43 0 0 0 457.4 47.401 L 465.6 47.401 A 33.123 33.123 0 0 1 463.302 56.196 A 28.738 28.738 0 0 1 460.45 61.401 Q 456.3 67.401 449.85 70.701 A 30.109 30.109 0 0 1 439.433 73.768 A 37.577 37.577 0 0 1 435.2 74.001 A 34.863 34.863 0 0 1 425.569 72.701 A 31.426 31.426 0 0 1 421.55 71.251 Q 415.3 68.501 410.7 63.551 A 34.406 34.406 0 0 1 403.921 52.687 A 39.453 39.453 0 0 1 403.6 51.851 A 40.352 40.352 0 0 1 401.298 41.45 A 49.048 49.048 0 0 1 401.1 37.001 A 45.801 45.801 0 0 1 401.981 27.858 A 38.496 38.496 0 0 1 403.6 22.151 A 35.853 35.853 0 0 1 408.757 12.702 A 33.163 33.163 0 0 1 410.65 10.451 Q 415.2 5.501 421.45 2.751 A 32.889 32.889 0 0 1 433.041 0.055 A 38.58 38.58 0 0 1 435.1 0.001 A 34.174 34.174 0 0 1 443.69 1.045 A 28.986 28.986 0 0 1 449.65 3.301 Q 456.1 6.601 460.25 12.601 Q 464.4 18.601 465.4 26.601 Z M 29.1 73.001 L 5.4 73.001 L 5.4 66.201 L 28.4 66.201 Q 35 66.201 38.9 62.601 A 11.913 11.913 0 0 0 42.638 55.281 A 16.923 16.923 0 0 0 42.8 52.901 A 16.679 16.679 0 0 0 42.187 48.262 A 12.649 12.649 0 0 0 38.7 42.501 A 13.787 13.787 0 0 0 31.933 39.022 A 20.183 20.183 0 0 0 27.7 38.601 L 5.4 38.601 L 5.4 32.001 L 26.6 32.001 Q 31.615 32.001 34.999 30.205 A 11.721 11.721 0 0 0 37.2 28.701 A 10.751 10.751 0 0 0 40.732 22.398 A 15.962 15.962 0 0 0 41 19.401 Q 41 13.801 37.45 10.801 A 11.446 11.446 0 0 0 33.568 8.699 Q 31.894 8.151 29.858 7.938 A 26.439 26.439 0 0 0 27.1 7.801 L 5.4 7.801 L 5.4 1.001 L 27.8 1.001 A 33.747 33.747 0 0 1 34.116 1.556 Q 37.765 2.252 40.645 3.819 A 18.077 18.077 0 0 1 43.45 5.701 A 15.313 15.313 0 0 1 49.141 16.89 A 21.441 21.441 0 0 1 49.2 18.501 A 19.347 19.347 0 0 1 48.472 23.89 A 16.718 16.718 0 0 1 46.9 27.601 Q 44.6 31.601 40.6 33.851 Q 36.6 36.101 31.4 36.101 L 31.9 34.001 A 19.901 19.901 0 0 1 38.171 34.965 A 17.857 17.857 0 0 1 41.75 36.601 Q 46.1 39.201 48.65 43.651 A 19.347 19.347 0 0 1 51.095 51.537 A 23.905 23.905 0 0 1 51.2 53.801 A 20.045 20.045 0 0 1 50.401 59.554 A 17.197 17.197 0 0 1 48.45 63.851 A 18.03 18.03 0 0 1 41.618 70.133 A 21.872 21.872 0 0 1 40.7 70.601 A 23.941 23.941 0 0 1 34.012 72.634 A 31.679 31.679 0 0 1 29.1 73.001 Z M 297.2 49.901 L 255.1 49.901 L 255.1 43.201 L 292.3 43.201 L 289.7 46.901 Q 289.7 40.665 287.84 36.382 A 15.359 15.359 0 0 0 285.65 32.751 A 13.19 13.19 0 0 0 277.068 28.005 A 19.376 19.376 0 0 0 274.2 27.801 A 17.814 17.814 0 0 0 268.362 28.718 A 14.981 14.981 0 0 0 261.95 33.051 Q 257.536 38.034 257.312 46.306 A 33.025 33.025 0 0 0 257.3 47.201 A 28.925 28.925 0 0 0 257.901 53.27 Q 258.971 58.259 261.95 61.751 A 15.233 15.233 0 0 0 272.965 67.153 A 21.122 21.122 0 0 0 274.4 67.201 Q 279.3 67.201 283 65.051 Q 286.7 62.901 288.4 58.901 L 296 58.901 Q 293.5 65.901 287.65 69.951 A 22.833 22.833 0 0 1 276.155 73.921 A 28.555 28.555 0 0 1 274 74.001 A 26.221 26.221 0 0 1 266.549 72.976 A 22.448 22.448 0 0 1 261.1 70.551 Q 255.5 67.101 252.3 61.101 A 27.109 27.109 0 0 1 249.382 51.773 A 34.482 34.482 0 0 1 249.1 47.301 Q 249.1 39.501 252.25 33.551 Q 255.4 27.601 261.1 24.301 A 24.557 24.557 0 0 1 270.825 21.182 A 30.73 30.73 0 0 1 274.2 21.001 A 27.473 27.473 0 0 1 280.45 21.682 A 21.531 21.531 0 0 1 286.55 24.101 Q 291.8 27.201 294.65 32.801 A 25.606 25.606 0 0 1 297.03 40.156 A 34.75 34.75 0 0 1 297.5 46.001 A 36.024 36.024 0 0 1 297.476 47.328 A 30.802 30.802 0 0 1 297.45 47.901 Q 297.4 48.801 297.2 49.901 Z M 522.3 49.901 L 480.2 49.901 L 480.2 43.201 L 517.4 43.201 L 514.8 46.901 Q 514.8 40.665 512.94 36.382 A 15.359 15.359 0 0 0 510.75 32.751 A 13.19 13.19 0 0 0 502.168 28.005 A 19.376 19.376 0 0 0 499.3 27.801 A 17.814 17.814 0 0 0 493.462 28.718 A 14.981 14.981 0 0 0 487.05 33.051 Q 482.636 38.034 482.412 46.306 A 33.025 33.025 0 0 0 482.4 47.201 A 28.925 28.925 0 0 0 483.001 53.27 Q 484.071 58.259 487.05 61.751 A 15.233 15.233 0 0 0 498.065 67.153 A 21.122 21.122 0 0 0 499.5 67.201 Q 504.4 67.201 508.1 65.051 Q 511.8 62.901 513.5 58.901 L 521.1 58.901 Q 518.6 65.901 512.75 69.951 A 22.833 22.833 0 0 1 501.255 73.921 A 28.555 28.555 0 0 1 499.1 74.001 A 26.221 26.221 0 0 1 491.649 72.976 A 22.448 22.448 0 0 1 486.2 70.551 Q 480.6 67.101 477.4 61.101 A 27.109 27.109 0 0 1 474.482 51.773 A 34.482 34.482 0 0 1 474.2 47.301 Q 474.2 39.501 477.35 33.551 Q 480.5 27.601 486.2 24.301 A 24.557 24.557 0 0 1 495.925 21.182 A 30.73 30.73 0 0 1 499.3 21.001 A 27.473 27.473 0 0 1 505.55 21.682 A 21.531 21.531 0 0 1 511.65 24.101 Q 516.9 27.201 519.75 32.801 A 25.606 25.606 0 0 1 522.13 40.156 A 34.75 34.75 0 0 1 522.6 46.001 A 36.024 36.024 0 0 1 522.576 47.328 A 30.802 30.802 0 0 1 522.55 47.901 Q 522.5 48.801 522.3 49.901 Z M 676.3 49.901 L 634.2 49.901 L 634.2 43.201 L 671.4 43.201 L 668.8 46.901 Q 668.8 40.665 666.94 36.382 A 15.359 15.359 0 0 0 664.75 32.751 A 13.19 13.19 0 0 0 656.168 28.005 A 19.376 19.376 0 0 0 653.3 27.801 A 17.814 17.814 0 0 0 647.462 28.718 A 14.981 14.981 0 0 0 641.05 33.051 Q 636.636 38.034 636.412 46.306 A 33.025 33.025 0 0 0 636.4 47.201 A 28.925 28.925 0 0 0 637.001 53.27 Q 638.071 58.259 641.05 61.751 A 15.233 15.233 0 0 0 652.065 67.153 A 21.122 21.122 0 0 0 653.5 67.201 Q 658.4 67.201 662.1 65.051 Q 665.8 62.901 667.5 58.901 L 675.1 58.901 Q 672.6 65.901 666.75 69.951 A 22.833 22.833 0 0 1 655.255 73.921 A 28.555 28.555 0 0 1 653.1 74.001 A 26.221 26.221 0 0 1 645.649 72.976 A 22.448 22.448 0 0 1 640.2 70.551 Q 634.6 67.101 631.4 61.101 A 27.109 27.109 0 0 1 628.482 51.773 A 34.482 34.482 0 0 1 628.2 47.301 Q 628.2 39.501 631.35 33.551 Q 634.5 27.601 640.2 24.301 A 24.557 24.557 0 0 1 649.925 21.182 A 30.73 30.73 0 0 1 653.3 21.001 A 27.473 27.473 0 0 1 659.55 21.682 A 21.531 21.531 0 0 1 665.65 24.101 Q 670.9 27.201 673.75 32.801 A 25.606 25.606 0 0 1 676.13 40.156 A 34.75 34.75 0 0 1 676.6 46.001 A 36.024 36.024 0 0 1 676.576 47.328 A 30.802 30.802 0 0 1 676.55 47.901 Q 676.5 48.801 676.3 49.901 Z M 117.8 57.301 L 125.5 57.301 A 12.497 12.497 0 0 0 126.547 60.902 A 10.043 10.043 0 0 0 129.8 64.801 Q 132.921 67.055 137.846 67.355 A 25.575 25.575 0 0 0 139.4 67.401 A 22.891 22.891 0 0 0 142.488 67.205 Q 144.137 66.98 145.487 66.496 A 10.127 10.127 0 0 0 147.7 65.401 A 6.719 6.719 0 0 0 149.803 63.239 Q 150.7 61.724 150.7 59.701 Q 150.7 57.101 149 55.151 A 6.189 6.189 0 0 0 147.691 54.05 Q 146.27 53.128 143.913 52.386 A 32.013 32.013 0 0 0 142.2 51.901 L 134 49.801 Q 127 48.001 123.5 44.251 Q 120 40.501 120 35.301 A 14.29 14.29 0 0 1 120.809 30.392 A 12.311 12.311 0 0 1 124.9 24.851 A 16.861 16.861 0 0 1 130.831 21.919 Q 133.256 21.237 136.141 21.062 A 33.892 33.892 0 0 1 138.2 21.001 Q 146.5 21.001 151.7 25.001 A 14.944 14.944 0 0 1 157.429 34.797 A 20.231 20.231 0 0 1 157.6 36.101 L 149.9 36.101 A 10.54 10.54 0 0 0 148.828 32.877 A 8.862 8.862 0 0 0 146.1 29.801 Q 143.391 27.878 139.153 27.636 A 21.963 21.963 0 0 0 137.9 27.601 Q 134.684 27.601 132.416 28.397 A 9 9 0 0 0 130.3 29.451 A 6.091 6.091 0 0 0 128.296 31.647 Q 127.687 32.808 127.611 34.275 A 8.206 8.206 0 0 0 127.6 34.701 A 6.046 6.046 0 0 0 129.43 39.081 A 7.838 7.838 0 0 0 129.55 39.201 A 8.613 8.613 0 0 0 131.115 40.383 Q 133.009 41.527 136.1 42.401 L 144.1 44.601 A 31.179 31.179 0 0 1 148.568 46.143 Q 150.926 47.178 152.724 48.533 A 15.528 15.528 0 0 1 154.8 50.401 Q 158.4 54.301 158.4 59.801 A 14.069 14.069 0 0 1 157.622 64.585 A 11.966 11.966 0 0 1 153.3 70.251 Q 149.238 73.238 142.701 73.845 A 37.848 37.848 0 0 1 139.2 74.001 A 32.975 32.975 0 0 1 133.06 73.463 Q 129.506 72.789 126.69 71.27 A 17.914 17.914 0 0 1 124.2 69.651 Q 118.6 65.301 117.8 57.301 Z M 305.4 57.301 L 313.1 57.301 A 12.497 12.497 0 0 0 314.147 60.902 A 10.043 10.043 0 0 0 317.4 64.801 Q 320.521 67.055 325.446 67.355 A 25.575 25.575 0 0 0 327 67.401 A 22.891 22.891 0 0 0 330.088 67.205 Q 331.737 66.98 333.087 66.496 A 10.127 10.127 0 0 0 335.3 65.401 A 6.719 6.719 0 0 0 337.403 63.239 Q 338.3 61.724 338.3 59.701 Q 338.3 57.101 336.6 55.151 A 6.189 6.189 0 0 0 335.291 54.05 Q 333.87 53.128 331.513 52.386 A 32.013 32.013 0 0 0 329.8 51.901 L 321.6 49.801 Q 314.6 48.001 311.1 44.251 Q 307.6 40.501 307.6 35.301 A 14.29 14.29 0 0 1 308.409 30.392 A 12.311 12.311 0 0 1 312.5 24.851 A 16.861 16.861 0 0 1 318.431 21.919 Q 320.856 21.237 323.741 21.062 A 33.892 33.892 0 0 1 325.8 21.001 Q 334.1 21.001 339.3 25.001 A 14.944 14.944 0 0 1 345.029 34.797 A 20.231 20.231 0 0 1 345.2 36.101 L 337.5 36.101 A 10.54 10.54 0 0 0 336.428 32.877 A 8.862 8.862 0 0 0 333.7 29.801 Q 330.991 27.878 326.753 27.636 A 21.963 21.963 0 0 0 325.5 27.601 Q 322.284 27.601 320.016 28.397 A 9 9 0 0 0 317.9 29.451 A 6.091 6.091 0 0 0 315.896 31.647 Q 315.287 32.808 315.211 34.275 A 8.206 8.206 0 0 0 315.2 34.701 A 6.046 6.046 0 0 0 317.03 39.081 A 7.838 7.838 0 0 0 317.15 39.201 A 8.613 8.613 0 0 0 318.715 40.383 Q 320.609 41.527 323.7 42.401 L 331.7 44.601 A 31.179 31.179 0 0 1 336.168 46.143 Q 338.526 47.178 340.324 48.533 A 15.528 15.528 0 0 1 342.4 50.401 Q 346 54.301 346 59.801 A 14.069 14.069 0 0 1 345.222 64.585 A 11.966 11.966 0 0 1 340.9 70.251 Q 336.838 73.238 330.301 73.845 A 37.848 37.848 0 0 1 326.8 74.001 A 32.975 32.975 0 0 1 320.66 73.463 Q 317.106 72.789 314.29 71.27 A 17.914 17.914 0 0 1 311.8 69.651 Q 306.2 65.301 305.4 57.301 Z M 352.7 57.301 L 360.4 57.301 A 12.497 12.497 0 0 0 361.447 60.902 A 10.043 10.043 0 0 0 364.7 64.801 Q 367.821 67.055 372.746 67.355 A 25.575 25.575 0 0 0 374.3 67.401 A 22.891 22.891 0 0 0 377.388 67.205 Q 379.037 66.98 380.387 66.496 A 10.127 10.127 0 0 0 382.6 65.401 A 6.719 6.719 0 0 0 384.703 63.239 Q 385.6 61.724 385.6 59.701 Q 385.6 57.101 383.9 55.151 A 6.189 6.189 0 0 0 382.591 54.05 Q 381.17 53.128 378.813 52.386 A 32.013 32.013 0 0 0 377.1 51.901 L 368.9 49.801 Q 361.9 48.001 358.4 44.251 Q 354.9 40.501 354.9 35.301 A 14.29 14.29 0 0 1 355.709 30.392 A 12.311 12.311 0 0 1 359.8 24.851 A 16.861 16.861 0 0 1 365.731 21.919 Q 368.156 21.237 371.041 21.062 A 33.892 33.892 0 0 1 373.1 21.001 Q 381.4 21.001 386.6 25.001 A 14.944 14.944 0 0 1 392.329 34.797 A 20.231 20.231 0 0 1 392.5 36.101 L 384.8 36.101 A 10.54 10.54 0 0 0 383.728 32.877 A 8.862 8.862 0 0 0 381 29.801 Q 378.291 27.878 374.053 27.636 A 21.963 21.963 0 0 0 372.8 27.601 Q 369.584 27.601 367.316 28.397 A 9 9 0 0 0 365.2 29.451 A 6.091 6.091 0 0 0 363.196 31.647 Q 362.587 32.808 362.511 34.275 A 8.206 8.206 0 0 0 362.5 34.701 A 6.046 6.046 0 0 0 364.33 39.081 A 7.838 7.838 0 0 0 364.45 39.201 A 8.613 8.613 0 0 0 366.015 40.383 Q 367.909 41.527 371 42.401 L 379 44.601 A 31.179 31.179 0 0 1 383.468 46.143 Q 385.826 47.178 387.624 48.533 A 15.528 15.528 0 0 1 389.7 50.401 Q 393.3 54.301 393.3 59.801 A 14.069 14.069 0 0 1 392.522 64.585 A 11.966 11.966 0 0 1 388.2 70.251 Q 384.138 73.238 377.601 73.845 A 37.848 37.848 0 0 1 374.1 74.001 A 32.975 32.975 0 0 1 367.96 73.463 Q 364.406 72.789 361.59 71.27 A 17.914 17.914 0 0 1 359.1 69.651 Q 353.5 65.301 352.7 57.301 Z M 237.7 73.001 L 229.7 73.001 L 229.7 39.601 Q 229.7 33.801 226.8 30.901 A 9.172 9.172 0 0 0 223.065 28.681 Q 221.618 28.213 219.861 28.067 A 20.049 20.049 0 0 0 218.2 28.001 A 19.321 19.321 0 0 0 213.212 28.622 A 16.096 16.096 0 0 0 209.35 30.201 Q 205.5 32.401 203.35 36.301 A 17.103 17.103 0 0 0 201.454 41.979 A 22.256 22.256 0 0 0 201.2 45.401 L 199.9 33.301 Q 202.5 27.601 207.85 24.301 A 22.308 22.308 0 0 1 218.53 21.04 A 27.089 27.089 0 0 1 220 21.001 A 22.857 22.857 0 0 1 225.557 21.64 A 16.206 16.206 0 0 1 232.85 25.551 A 15.142 15.142 0 0 1 237.604 35.476 A 20.875 20.875 0 0 1 237.7 37.501 L 237.7 73.001 Z M 579.1 73.001 L 571.1 73.001 L 571.1 39.601 Q 571.1 33.801 568.2 30.901 A 9.172 9.172 0 0 0 564.465 28.681 Q 563.018 28.213 561.261 28.067 A 20.049 20.049 0 0 0 559.6 28.001 A 19.321 19.321 0 0 0 554.612 28.622 A 16.096 16.096 0 0 0 550.75 30.201 Q 546.9 32.401 544.75 36.301 A 17.103 17.103 0 0 0 542.854 41.979 A 22.256 22.256 0 0 0 542.6 45.401 L 541.3 33.301 Q 543.9 27.601 549.25 24.301 A 22.308 22.308 0 0 1 559.93 21.04 A 27.089 27.089 0 0 1 561.4 21.001 A 22.857 22.857 0 0 1 566.957 21.64 A 16.206 16.206 0 0 1 574.25 25.551 A 15.142 15.142 0 0 1 579.004 35.476 A 20.875 20.875 0 0 1 579.1 37.501 L 579.1 73.001 Z M 62.4 57.501 L 62.4 22.001 L 70.4 22.001 L 70.4 55.401 A 18.806 18.806 0 0 0 70.665 58.666 Q 70.976 60.428 71.654 61.818 A 8.609 8.609 0 0 0 73.25 64.101 A 9.222 9.222 0 0 0 77.431 66.503 Q 78.873 66.907 80.592 66.983 A 18.362 18.362 0 0 0 81.4 67.001 A 17.808 17.808 0 0 0 86.288 66.352 A 15.127 15.127 0 0 0 89.9 64.801 Q 93.6 62.601 95.75 58.651 A 17.668 17.668 0 0 0 97.748 52.229 A 22.212 22.212 0 0 0 97.9 49.601 L 99.2 61.701 Q 96.7 67.401 91.4 70.701 Q 86.1 74.001 79.6 74.001 A 20.834 20.834 0 0 1 74.598 73.422 A 17.189 17.189 0 0 1 70.7 71.951 Q 66.8 69.901 64.6 66.151 Q 62.4 62.401 62.4 57.501 Z M 598.7 58.901 L 598.7 10.101 L 606.7 7.101 L 606.7 58.801 A 13.296 13.296 0 0 0 606.889 61.123 Q 607.345 63.687 608.9 65.101 Q 611 67.01 615.653 67.097 A 24.063 24.063 0 0 0 616.1 67.101 Q 617.729 67.101 618.993 66.935 A 13.992 13.992 0 0 0 619.55 66.851 Q 621 66.601 621.9 66.201 L 621.9 73.001 A 6.932 6.932 0 0 1 621.192 73.236 Q 620.444 73.445 619.4 73.601 A 24.894 24.894 0 0 1 619.05 73.651 Q 617.2 73.901 614.9 73.901 Q 609.837 73.901 606.423 72.534 A 11.366 11.366 0 0 1 602.55 70.051 A 12.346 12.346 0 0 1 599.49 64.808 Q 598.898 62.858 598.749 60.51 A 25.557 25.557 0 0 1 598.7 58.901 Z M 8.2 73.001 L 0 73.001 L 0 1.001 L 8.2 1.001 L 8.2 73.001 Z M 105.9 73.001 L 98.4 73.001 L 98.4 61.001 L 97.9 61.001 L 97.9 22.001 L 105.9 22.001 L 105.9 73.001 Z M 177.2 73.001 L 169.2 73.001 L 169.2 22.001 L 177.2 22.001 L 177.2 73.001 Z M 201.2 73.001 L 193.2 73.001 L 193.2 22.001 L 200.7 22.001 L 200.7 34.001 L 201.2 34.001 L 201.2 73.001 Z M 542.6 73.001 L 534.6 73.001 L 534.6 22.001 L 542.1 22.001 L 542.1 34.001 L 542.6 34.001 L 542.6 73.001 Z M 696.6 73.001 L 688.6 73.001 L 688.6 22.001 L 696.1 22.001 L 696.1 35.001 L 696.6 35.001 L 696.6 73.001 Z M 621.9 28.801 L 588.2 28.801 L 588.2 22.001 L 621.9 22.001 L 621.9 28.801 Z M 696.6 46.401 L 695.3 34.301 Q 697.1 27.801 701.7 24.401 Q 706.3 21.001 712.3 21.001 A 24.711 24.711 0 0 1 713.384 21.023 Q 714.913 21.09 715.613 21.364 A 2.093 2.093 0 0 1 715.7 21.401 L 715.7 29.101 Q 715.2 28.901 714.3 28.851 Q 713.681 28.816 712.873 28.805 A 58.278 58.278 0 0 0 712.1 28.801 A 20.227 20.227 0 0 0 707.505 29.29 Q 704.212 30.058 701.885 32.03 A 12.265 12.265 0 0 0 700.55 33.351 A 14.81 14.81 0 0 0 697.65 38.684 Q 696.6 42.017 696.6 46.401 Z M 177.8 10.401 L 168.6 10.401 L 168.6 1.001 L 177.8 1.001 L 177.8 10.401 Z" vector-effect="non-scaling-stroke"/></g></svg>